<svg width="35" height="35" viewBox="0 0 35 35" fill="none" xmlns="http://www.w3.org/2000/svg">
<g clip-path="url(#clip0)">
<path d="M20.138 17.5032L2.5618 34.4278C1.73873 33.8653 1.25006 32.9297 1.2587 31.9328V3.07346C1.25006 2.07661 1.73873 1.14098 2.5618 0.578491L20.138 17.5032Z" fill="#2196F3"/>
<path d="M26.288 11.5914L20.138 17.5031L2.56178 0.578431C2.62801 0.527106 2.69699 0.479356 2.76835 0.435406C3.69727 -0.127607 4.85756 -0.145783 5.80369 0.387731L26.288 11.5914Z" fill="#4CAF50"/>
<path d="M33.7413 17.5031C33.7528 18.6285 33.1413 19.668 32.1522 20.2048L26.2881 23.4149L20.138 17.5031L26.2881 11.5914L32.1522 14.8015C33.1413 15.3383 33.7528 16.3778 33.7413 17.5031Z" fill="#FFC107"/>
<path d="M26.288 23.4149L5.80369 34.6185C4.85548 35.1438 3.69958 35.1256 2.76835 34.5709C2.69699 34.5269 2.62801 34.4792 2.56178 34.4278L20.138 17.5032L26.288 23.4149Z" fill="#F44336"/>
</g>
<defs>
<clipPath id="clip0">
<rect width="35" height="35" fill="white"/>
</clipPath>
</defs>
</svg>
